# xmcd CD database file
# Copyright (C) 1993-1996 Ti Kan
#
# Track frame offsets:
#	150
#	16325
#	34262
#	49287
#	63212
#	77450
#	91937
#	107112
#	126812
#	139912
#	154212
#	166362
#	180087
#	196837
#
# Disc length: 2831 seconds
#
# Revision: 1
# Processed by: cddbd v1.4b41PL1 Copyright (c) Steve Scherf et al.
# Submitted via: CDValet v3.31 - Copyright (c) 1997 Greg Leichner
#
DISCID=ad0b0d0e
DTITLE=Patty Loveless - The Patty Loveless Collection
DYEAR=1900
DGENRE=
TTITLE0=Blame It On Your Heart
TTITLE1=Nothin' But The Wheel
TTITLE2=Feelin' Good About Fellin' Bad
TTITLE3=I'm That Kind Of Girl
TTITLE4=What's A Broken Heart
TTITLE5=Mr. Man On The Moon
TTITLE6=Jealous Bone
TTITLE7=Over My Shoulder
TTITLE8=All I Need (Is Not To Need You)
TTITLE9=A Handful Of Dust
TTITLE10=How About You
TTITLE11=Old Weakness (Coming On Strong)
TTITLE12=You Don't Know How Lucky You Are
TTITLE13=Tear Stained Letter
EXTD=
EXTT0=
EXTT1=
EXTT2=
EXTT3=
EXTT4=
EXTT5=
EXTT6=
EXTT7=
EXTT8=
EXTT9=
EXTT10=
EXTT11=
EXTT12=
EXTT13=
PLAYORDER=
